<?xml version="1.0" encoding="utf-8"?>
<!-- Generator: Adobe Illustrator 24.1.0, SVG Export Plug-In . SVG Version: 6.00 Build 0)  -->
<svg version="1.1" id="Layer_1" xmlns="http://www.w3.org/2000/svg" xmlns:xlink="http://www.w3.org/1999/xlink" x="0px" y="0px"
	 viewBox="0 0 251.4 85.9" style="enable-background:new 0 0 251.4 85.9;" xml:space="preserve">
<style type="text/css">
	.st0{fill:#88888;}
	.st1{fill:#FFFFFF;}
	.st2{enable-background:new    ;}
	.st3{fill:#FFFFFF;stroke:#F4F4F4;stroke-width:0.9256;stroke-miterlimit:10;}
</style>
<polygon class="st0" points="251.4,85.9 0,85.9 0,85.9 0,0 251.4,0 251.4,0 "/>
<g id="ICON_4_">
	<g id="Body_4_">
		<path class="st1" d="M46.1,26.1c-18.1,0-27.7-7.8-27.7-7.8c0,6.5,15.2,6.4,21.7,14.2c1.3,1.5,2.2,4.1,2.9,8c2.1,1,4.1,1.8,6,2.5
			c0.8-5.3,1.7-9,3-10.5c6.6-7.7,22.1-7.6,22.1-14.2C74.1,18.3,64.2,26.1,46.1,26.1z"/>
		<circle id="Head_4_" class="st1" cx="46.1" cy="19.4" r="4.9"/>
		<g>
			<path class="st1" d="M43.8,58.9c-4.7,2-8.4,5-7.7,11.6c1.4-3.9,4.1-6.1,8-7.8C43.9,61.4,43.8,60.2,43.8,58.9z"/>
			<path class="st1" d="M32.2,34.9c-3.4,12.3,21.4,12.8,21.4,18.5c0,2-1.7,3.1-5,4.4c-0.1,1.4-0.2,2.8-0.3,4.1
				c6-2.3,11.1-3.9,11.1-8.7C59.3,44.4,44.4,45.6,32.2,34.9z"/>
		</g>
		<path id="Leg_4_" class="st1" d="M48.3,50.4c-1.1,9.8-1.7,20-2.1,24.8c-0.9-5.9-1.3-17-2.4-26.5C45.4,49.3,46.9,49.9,48.3,50.4z"
			/>
	</g>
	<g id="Left_Wing_3_">
		<g>
			<path class="st1" d="M54.5,34.3c0.3,0.2,0.5,0.3,0.8,0.5s0.6,0.3,0.9,0.4c0.3,0.1,0.6,0.2,0.9,0.3c0.3,0.1,0.6,0.1,0.9,0.1l0.1,0
				l0.1,0c0,0,0.1,0,0.1,0l0.1,0c0.1,0,0.1,0,0.2-0.1c0.1,0,0.1,0,0.2-0.1c0.3-0.1,0.6-0.2,0.8-0.4c0.3-0.2,0.5-0.4,0.7-0.6
				c0.2-0.2,0.3-0.5,0.4-0.7l0.1-0.3l0.2,0.2c0.1,0.1,0.3,0.2,0.5,0.2c0.2,0,0.4,0,0.6,0c0.4,0,0.9-0.1,1.3-0.2
				c0.4-0.1,0.9-0.2,1.3-0.4c0.4-0.1,0.8-0.3,1.2-0.5c0.2-0.1,0.4-0.2,0.5-0.3c0.2-0.1,0.3-0.3,0.5-0.4c0.3-0.3,0.6-0.6,0.9-0.9
				s0.5-0.7,0.7-1.1c0.1-0.2,0.2-0.4,0.2-0.6c0.1-0.2,0.1-0.4,0.1-0.6l0-0.5l0.5,0.1c0.1,0,0.3,0,0.5,0c0.2,0,0.4-0.1,0.6-0.2
				c0.4-0.1,0.8-0.3,1.2-0.5c0.4-0.2,0.8-0.4,1.2-0.6c0.2-0.1,0.4-0.2,0.5-0.4c0.2-0.1,0.3-0.3,0.5-0.4l0,0c0,0,0,0,0-0.1l0.1-0.1
				l0.1-0.1l0-0.1l0-0.1c0.1-0.1,0.1-0.2,0.2-0.3c0.1-0.1,0.1-0.2,0.2-0.3c0.2-0.4,0.4-0.8,0.6-1.2c0.2-0.4,0.3-0.8,0.4-1.2
				c0-0.1,0-0.1,0-0.2l0-0.2c0-0.1,0-0.1,0-0.2l0-0.1l0-0.1l0,0l0,0l0-0.1c0,0,0,0,0-0.1v-0.1c0,0,0-0.1,0-0.1l0-0.5l0.5-0.2
				c0.3-0.1,0.6-0.3,0.8-0.5c0.2-0.2,0.4-0.5,0.6-0.8c0.2-0.3,0.3-0.7,0.4-1c0.1-0.4,0.2-0.7,0.3-1.1c0.1-0.4,0.2-0.8,0.2-1.2
				c0.1-0.4,0.1-0.8,0.2-1.2c0.1-0.8,0.1-1.6,0.1-2.5c0-0.1,0-0.2,0-0.3v-0.1v0c0,0,0,0,0,0c0,0.1,0,0.2,0.1,0.4
				c0.1,0.2,0.2,0.3,0.4,0.4c0.2,0.1,0.3,0.1,0.4,0.1c0.1,0,0.2,0,0.3,0c0.1,0,0.1,0,0.2-0.1c0.1,0,0.1,0,0.1,0l0,0l0,0l-0.1,0
				l-0.6,0.3l-0.3,0.1c-0.1,0-0.2,0.1-0.3,0.1l-0.6,0.3c-0.2,0.1-0.4,0.2-0.6,0.3l-0.6,0.3c-0.2,0.1-0.4,0.2-0.6,0.2
				c-0.2,0.1-0.4,0.2-0.6,0.2c-1.6,0.6-3.2,1.2-4.9,1.7c-0.4,0.1-0.8,0.2-1.2,0.4c-0.4,0.1-0.8,0.2-1.2,0.3
				c-0.4,0.1-0.8,0.2-1.2,0.3L67,17.7l-0.6,0.1c-1.7,0.4-3.4,0.6-5.1,0.9l-2.5,0.4c-0.2,0-0.4,0.1-0.6,0.1c-0.1,0-0.2,0-0.3,0.1
				c-0.1,0-0.2,0-0.3,0.1c-0.4,0.1-0.7,0.2-1,0.4c-0.7,0.4-1.2,1-1.7,1.7c-0.2,0.3-0.5,0.7-0.7,1c-0.1,0.2-0.2,0.4-0.3,0.6
				c-0.1,0.2-0.1,0.4-0.2,0.6l-0.4,0c0-0.2,0.1-0.5,0.1-0.7c0.1-0.2,0.1-0.4,0.2-0.6c0.1-0.2,0.2-0.4,0.3-0.6
				c0.1-0.2,0.2-0.4,0.3-0.6c0.1-0.2,0.2-0.4,0.4-0.5c0.1-0.2,0.3-0.4,0.4-0.5c0.1-0.2,0.3-0.3,0.5-0.5c0.2-0.2,0.3-0.3,0.5-0.4
				c0.2-0.1,0.4-0.3,0.6-0.4l0.2-0.1c0.1,0,0.1,0,0.2-0.1c0.1,0,0.1,0,0.2-0.1c0.1,0,0.1,0,0.2-0.1c0.1,0,0.2-0.1,0.3-0.1
				c0.1,0,0.2-0.1,0.3-0.1c0.2-0.1,0.4-0.1,0.6-0.1c0.8-0.2,1.7-0.3,2.5-0.5c0.8-0.2,1.7-0.4,2.5-0.5c0.8-0.2,1.6-0.4,2.5-0.6
				c0.8-0.2,1.6-0.4,2.4-0.7c0.8-0.2,1.6-0.5,2.4-0.8c0.2-0.1,0.4-0.1,0.6-0.2s0.4-0.1,0.6-0.2c0.4-0.1,0.8-0.3,1.2-0.4l0.6-0.2
				l0.6-0.2c0.4-0.2,0.8-0.3,1.2-0.5c0.4-0.2,0.8-0.3,1.1-0.5l0.6-0.3c0.2-0.1,0.4-0.2,0.6-0.3l0.6-0.3c0.1,0,0.2-0.1,0.3-0.1
				l0.3-0.1l0.6-0.3l0.1,0l0,0l0,0c0,0,0,0,0.1,0c0.1,0,0.1,0,0.2-0.1c0.1,0,0.2,0,0.3,0c0.1,0,0.2,0,0.4,0.1
				c0.2,0.1,0.3,0.3,0.4,0.4c0.1,0.2,0.1,0.3,0.1,0.4v0v0v0.1c0,0.1,0,0.2,0,0.3c0,0.4,0,0.9,0,1.3c0,0.4-0.1,0.9-0.1,1.3
				c-0.1,0.9-0.3,1.8-0.5,2.6c-0.1,0.4-0.3,0.9-0.4,1.3c-0.2,0.4-0.4,0.9-0.6,1.3c-0.1,0.2-0.3,0.4-0.4,0.6
				c-0.1,0.1-0.2,0.2-0.3,0.3c0,0-0.1,0.1-0.1,0.1c0,0-0.1,0.1-0.1,0.1C78,22,77.5,22.3,77,22.4l0.5-0.7c0,0.3-0.1,0.6-0.1,0.8
				l0,0.2c0,0.1,0,0.1-0.1,0.2l-0.1,0.2c0,0.1,0,0.1-0.1,0.2c-0.2,0.5-0.4,0.9-0.6,1.3c-0.2,0.4-0.4,0.9-0.7,1.3
				c-0.1,0.1-0.1,0.2-0.2,0.3c-0.1,0.1-0.1,0.2-0.2,0.3l-0.1,0.1l-0.1,0.1l-0.1,0.2c0,0.1-0.1,0.1-0.1,0.2c0,0,0,0.1-0.1,0.1
				l-0.1,0.1c-0.2,0.2-0.4,0.3-0.6,0.5c-0.2,0.1-0.4,0.3-0.6,0.4c-0.4,0.2-0.9,0.4-1.3,0.6c-0.4,0.2-0.9,0.4-1.4,0.5
				c-0.2,0.1-0.5,0.1-0.7,0.2c-0.1,0-0.1,0-0.2,0c-0.1,0-0.1,0-0.2,0l-0.1,0c0,0-0.1,0-0.1,0c-0.1,0-0.2,0-0.2,0l0.5-0.4
				c0,0.3-0.1,0.5-0.2,0.8s-0.2,0.5-0.3,0.7c-0.2,0.4-0.5,0.8-0.9,1.2c-0.3,0.4-0.7,0.7-1,1c-0.2,0.2-0.4,0.3-0.6,0.4
				c-0.1,0.1-0.2,0.1-0.3,0.2s-0.2,0.1-0.3,0.2c-0.4,0.2-0.9,0.3-1.3,0.5c-0.4,0.1-0.9,0.2-1.4,0.3c-0.5,0.1-0.9,0.1-1.4,0.2
				c-0.2,0-0.5,0-0.7-0.1c-0.1,0-0.1,0-0.2,0c0,0-0.1,0-0.1,0c0,0-0.1,0-0.1,0c-0.1,0-0.2-0.1-0.4-0.2l0.3-0.1
				c-0.1,0.3-0.3,0.6-0.5,0.9c-0.2,0.2-0.5,0.4-0.8,0.6c-0.3,0.2-0.6,0.3-0.9,0.4c-0.1,0-0.2,0-0.2,0.1c-0.1,0-0.2,0-0.2,0.1l-0.1,0
				c0,0-0.1,0-0.1,0l-0.1,0h-0.1c-0.3,0-0.6-0.1-1-0.1c-0.3-0.1-0.6-0.2-0.9-0.3c-0.3-0.1-0.6-0.3-0.9-0.4S54.7,34.5,54.5,34.3
				L54.5,34.3z"/>
		</g>
	</g>
	<g id="Right_Wing_4_">
		<g>
			<path class="st1" d="M37.4,34.3c-0.2,0.2-0.5,0.4-0.8,0.5s-0.6,0.3-0.9,0.4c-0.3,0.1-0.6,0.2-0.9,0.3c-0.3,0.1-0.6,0.1-1,0.1
				h-0.1l-0.1,0c0,0-0.1,0-0.1,0l-0.1,0c-0.1,0-0.2,0-0.2-0.1c-0.1,0-0.2,0-0.2-0.1c-0.3-0.1-0.6-0.2-0.9-0.4
				c-0.3-0.2-0.5-0.4-0.8-0.6c-0.2-0.2-0.4-0.5-0.5-0.9l0.3,0.1c-0.1,0.1-0.2,0.2-0.4,0.2c0,0-0.1,0-0.1,0c0,0-0.1,0-0.1,0
				c-0.1,0-0.1,0-0.2,0c-0.2,0-0.5,0.1-0.7,0.1c-0.5,0-0.9-0.1-1.4-0.2c-0.5-0.1-0.9-0.2-1.4-0.3c-0.4-0.1-0.9-0.3-1.3-0.5
				c-0.1,0-0.2-0.1-0.3-0.2s-0.2-0.1-0.3-0.2c-0.2-0.1-0.4-0.3-0.6-0.4c-0.4-0.3-0.7-0.6-1-1c-0.3-0.4-0.6-0.7-0.9-1.2
				c-0.1-0.2-0.2-0.4-0.3-0.7s-0.2-0.5-0.2-0.8l0.5,0.4c-0.1,0-0.2,0-0.2,0c0,0-0.1,0-0.1,0l-0.1,0c-0.1,0-0.1,0-0.2,0
				c-0.1,0-0.1,0-0.2,0c-0.3,0-0.5-0.1-0.7-0.2c-0.5-0.1-0.9-0.3-1.4-0.5c-0.4-0.2-0.9-0.4-1.3-0.6c-0.2-0.1-0.4-0.2-0.6-0.4
				c-0.2-0.1-0.4-0.3-0.6-0.5l-0.1-0.1c0,0,0,0-0.1-0.1c-0.1,0-0.1-0.1-0.1-0.2l-0.1-0.2l-0.1-0.1l-0.1-0.1
				c-0.1-0.1-0.2-0.2-0.2-0.3c-0.1-0.1-0.1-0.2-0.2-0.3c-0.3-0.4-0.5-0.8-0.7-1.3c-0.2-0.4-0.4-0.9-0.6-1.3c0-0.1,0-0.1-0.1-0.2
				l-0.1-0.2c0-0.1,0-0.1-0.1-0.2l0-0.2c-0.1-0.3-0.1-0.5-0.1-0.8l0.5,0.7c-0.5-0.2-1-0.4-1.4-0.8c-0.1,0-0.1-0.1-0.1-0.1
				c0,0-0.1-0.1-0.1-0.1c-0.1-0.1-0.2-0.2-0.3-0.3c-0.2-0.2-0.3-0.4-0.4-0.6c-0.3-0.4-0.5-0.8-0.6-1.3c-0.2-0.4-0.3-0.9-0.4-1.3
				c-0.2-0.9-0.4-1.8-0.5-2.6c0-0.4-0.1-0.9-0.1-1.3c0-0.4,0-0.9,0-1.3c0-0.1,0-0.2,0-0.3v-0.1v0v0c0-0.1,0-0.2,0.1-0.4
				c0.1-0.2,0.2-0.3,0.4-0.4c0.2-0.1,0.3-0.1,0.4-0.1c0.1,0,0.2,0,0.3,0c0.1,0,0.1,0,0.2,0.1c0.1,0,0.1,0,0.1,0l0,0l0,0l0.1,0
				l0.6,0.3l0.3,0.1c0.1,0,0.2,0.1,0.3,0.1l0.6,0.3c0.2,0.1,0.4,0.2,0.6,0.3l0.6,0.3c0.4,0.2,0.8,0.3,1.1,0.5
				c0.4,0.2,0.8,0.3,1.2,0.5L18,14l0.6,0.2c0.4,0.2,0.8,0.3,1.2,0.4c0.2,0.1,0.4,0.1,0.6,0.2s0.4,0.1,0.6,0.2
				c0.8,0.3,1.6,0.5,2.4,0.8c0.8,0.2,1.6,0.5,2.4,0.7c0.8,0.2,1.6,0.4,2.5,0.6c0.8,0.2,1.6,0.4,2.5,0.5c0.8,0.2,1.7,0.3,2.5,0.5
				c0.2,0,0.4,0.1,0.6,0.1c0.1,0,0.2,0.1,0.3,0.1c0.1,0,0.2,0.1,0.3,0.1c0.1,0,0.1,0,0.2,0.1c0.1,0,0.1,0,0.2,0.1
				c0.1,0,0.1,0,0.2,0.1l0.2,0.1c0.2,0.1,0.4,0.2,0.6,0.4c0.2,0.1,0.4,0.3,0.5,0.4c0.2,0.2,0.3,0.3,0.5,0.5c0.1,0.2,0.3,0.3,0.4,0.5
				c0.1,0.2,0.3,0.4,0.4,0.5c0.1,0.2,0.2,0.4,0.3,0.6c0.1,0.2,0.2,0.4,0.3,0.6c0.1,0.2,0.2,0.4,0.2,0.6c0.1,0.2,0.1,0.4,0.1,0.7
				l-0.4,0c0-0.2-0.1-0.4-0.2-0.6c-0.1-0.2-0.2-0.4-0.3-0.6c-0.2-0.4-0.4-0.7-0.7-1c-0.5-0.7-1.1-1.2-1.7-1.7
				c-0.3-0.2-0.7-0.4-1-0.4c-0.1,0-0.2,0-0.3-0.1c-0.1,0-0.2,0-0.3-0.1c-0.2,0-0.4-0.1-0.6-0.1l-2.5-0.4c-1.7-0.3-3.4-0.5-5.1-0.9
				l-0.6-0.1l-0.6-0.1c-0.4-0.1-0.8-0.2-1.2-0.3c-0.4-0.1-0.8-0.2-1.2-0.3c-0.4-0.1-0.8-0.2-1.2-0.4c-1.6-0.5-3.3-1.1-4.9-1.7
				c-0.2-0.1-0.4-0.2-0.6-0.2c-0.2-0.1-0.4-0.2-0.6-0.2l-0.6-0.3c-0.2-0.1-0.4-0.2-0.6-0.3l-0.6-0.3c-0.1,0-0.2-0.1-0.3-0.1L12,13.4
				l-0.6-0.3l-0.1,0l0,0l0,0c0,0,0,0,0.1,0c0.1,0,0.1,0,0.2,0.1c0.1,0,0.1,0,0.3,0c0.1,0,0.2,0,0.4-0.1c0.2-0.1,0.3-0.2,0.4-0.4
				c0.1-0.2,0.1-0.3,0.1-0.4c0,0,0,0,0,0v0v0.1c0,0.1,0,0.2,0,0.3c0,0.8,0.1,1.6,0.1,2.5c0,0.4,0.1,0.8,0.2,1.2
				c0.1,0.4,0.1,0.8,0.2,1.2c0.1,0.4,0.2,0.8,0.3,1.1c0.1,0.4,0.3,0.7,0.4,1c0.2,0.3,0.4,0.6,0.6,0.8c0.2,0.2,0.5,0.4,0.8,0.5
				l0.5,0.2l0,0.5c0,0,0,0.1,0,0.1v0.1c0,0,0,0,0,0.1l0,0.1l0,0l0,0l0,0.1l0,0.1c0,0,0,0.1,0,0.2l0,0.2c0,0,0,0.1,0,0.2
				c0.1,0.4,0.3,0.8,0.4,1.2c0.2,0.4,0.4,0.8,0.6,1.2c0.1,0.1,0.1,0.2,0.2,0.3c0.1,0.1,0.1,0.2,0.2,0.3l0,0.1l0,0.1l0.1,0.1l0.1,0.1
				c0,0,0,0,0,0.1l0,0c0.1,0.1,0.3,0.3,0.5,0.4c0.2,0.1,0.4,0.3,0.5,0.4c0.4,0.2,0.8,0.4,1.2,0.6c0.4,0.2,0.8,0.4,1.2,0.5
				c0.2,0.1,0.4,0.1,0.6,0.2c0.2,0,0.4,0,0.5,0l0.5-0.1l0,0.5c0,0.2,0,0.4,0.1,0.6c0.1,0.2,0.1,0.4,0.2,0.6c0.2,0.4,0.4,0.7,0.7,1.1
				s0.6,0.7,0.9,0.9c0.2,0.1,0.3,0.3,0.5,0.4c0.2,0.1,0.4,0.2,0.5,0.3c0.4,0.2,0.8,0.4,1.2,0.5c0.4,0.1,0.9,0.3,1.3,0.4
				c0.4,0.1,0.9,0.2,1.3,0.2c0.2,0,0.4,0,0.6,0c0.2,0,0.4-0.1,0.5-0.2l0.2-0.2l0.1,0.3c0.1,0.3,0.2,0.5,0.4,0.7
				c0.2,0.2,0.4,0.4,0.7,0.6c0.3,0.2,0.5,0.3,0.8,0.4c0.1,0,0.1,0.1,0.2,0.1c0.1,0,0.1,0,0.2,0.1l0.1,0c0,0,0.1,0,0.1,0l0.1,0l0.1,0
				c0.3,0,0.6,0,0.9-0.1c0.3-0.1,0.6-0.1,0.9-0.3c0.3-0.1,0.6-0.2,0.9-0.4S37,34.4,37.4,34.3L37.4,34.3z"/>
		</g>
	</g>
</g>
<g id="TEXT_1_">
	<g>
		<g class="st2">
			<path class="st1" d="M96.4,62.4c0,0.5-0.1,1-0.3,1.4c-0.2,0.4-0.5,0.8-0.9,1c-0.4,0.3-0.8,0.5-1.2,0.6s-0.9,0.2-1.4,0.2h-1.2v3.1
				c0,0.2,0,0.3,0.1,0.5c0.1,0.1,0.2,0.2,0.3,0.3c0.1,0,0.2,0.1,0.5,0.1c0.2,0,0.4,0,0.6,0.1v0.5h-4.5v-0.5c0.1,0,0.3,0,0.5-0.1
				c0.2,0,0.4-0.1,0.5-0.1c0.1-0.1,0.3-0.2,0.3-0.3c0.1-0.1,0.1-0.3,0.1-0.5v-7.5c0-0.2,0-0.3-0.1-0.5s-0.2-0.2-0.3-0.3
				c-0.2-0.1-0.4-0.1-0.6-0.1c-0.2,0-0.3,0-0.5-0.1v-0.5h4.7c1,0,1.8,0.2,2.4,0.7S96.4,61.6,96.4,62.4z M94.1,64.1
				c0.2-0.2,0.3-0.5,0.3-0.7s0.1-0.5,0.1-0.7c0-0.3,0-0.6-0.1-0.8c-0.1-0.3-0.2-0.5-0.3-0.8c-0.2-0.2-0.4-0.4-0.7-0.5
				s-0.6-0.2-1-0.2h-1V65h0.7c0.5,0,1-0.1,1.3-0.2C93.7,64.6,94,64.4,94.1,64.1z"/>
			<path class="st1" d="M108.3,70.2H104v-0.5c0.1,0,0.3,0,0.5,0c0.2,0,0.4,0,0.5-0.1c0.1-0.1,0.3-0.1,0.3-0.3
				c0.1-0.1,0.1-0.3,0.1-0.5v-3.7h-4.9v3.6c0,0.2,0,0.3,0.1,0.4c0.1,0.1,0.2,0.2,0.3,0.3c0.1,0,0.2,0.1,0.4,0.1
				c0.2,0,0.4,0.1,0.5,0.1v0.5h-4.3v-0.5c0.1,0,0.3,0,0.5,0c0.2,0,0.4,0,0.5-0.1c0.1-0.1,0.3-0.1,0.3-0.3c0.1-0.1,0.1-0.3,0.1-0.5
				v-7.5c0-0.2,0-0.3-0.1-0.4s-0.2-0.2-0.3-0.3c-0.1-0.1-0.3-0.1-0.5-0.2c-0.2,0-0.4-0.1-0.5-0.1v-0.5h4.3v0.5c-0.1,0-0.3,0-0.5,0.1
				c-0.2,0-0.3,0.1-0.4,0.1c-0.2,0.1-0.3,0.2-0.3,0.3c-0.1,0.1-0.1,0.3-0.1,0.4v3.2h4.9v-3.1c0-0.2,0-0.3-0.1-0.4s-0.2-0.2-0.3-0.3
				c-0.1-0.1-0.3-0.1-0.5-0.2c-0.2,0-0.3-0.1-0.5-0.1v-0.5h4.3v0.5c-0.1,0-0.3,0-0.5,0.1c-0.2,0-0.3,0.1-0.4,0.1
				c-0.2,0.1-0.3,0.2-0.3,0.3c-0.1,0.1-0.1,0.3-0.1,0.4v7.5c0,0.2,0,0.3,0.1,0.4c0.1,0.1,0.2,0.2,0.3,0.3c0.1,0,0.2,0.1,0.4,0.1
				c0.2,0,0.4,0.1,0.5,0.1V70.2z"/>
			<path class="st1" d="M118.7,60.3c-0.1,0-0.2,0-0.4,0.1c-0.2,0.1-0.3,0.1-0.4,0.2c-0.2,0.1-0.3,0.2-0.4,0.3s-0.2,0.2-0.4,0.5
				c-0.4,0.5-0.7,1.1-1.1,1.6s-0.7,1.3-1.2,2.1c-0.2,0.3-0.3,0.6-0.4,0.8c-0.1,0.2-0.1,0.5-0.1,0.8v2c0,0.2,0,0.3,0.1,0.5
				c0.1,0.1,0.2,0.2,0.4,0.3c0.1,0,0.3,0.1,0.5,0.1c0.3,0.1,0.5,0.1,0.6,0.1v0.5h-4.9v-0.5c0.1,0,0.3,0,0.6-0.1
				c0.3,0,0.5-0.1,0.6-0.1c0.2-0.1,0.3-0.2,0.4-0.3c0.1-0.1,0.1-0.3,0.1-0.5v-2.5c0-0.1,0-0.2-0.1-0.4c-0.1-0.2-0.2-0.4-0.3-0.7
				c-0.3-0.6-0.6-1.2-1-1.8c-0.4-0.7-0.7-1.2-0.9-1.7c-0.2-0.3-0.3-0.5-0.4-0.6c-0.1-0.1-0.3-0.3-0.4-0.4c-0.1-0.1-0.3-0.1-0.4-0.2
				c-0.2,0-0.3-0.1-0.4-0.1v-0.5h4.4v0.5c-0.5,0-0.8,0-1.1,0.1s-0.3,0.1-0.3,0.2c0,0,0,0.1,0,0.2s0.1,0.2,0.1,0.3
				c0.1,0.1,0.1,0.3,0.2,0.4c0.1,0.2,0.2,0.3,0.2,0.5c0.2,0.4,0.5,0.9,0.7,1.3c0.2,0.4,0.6,1,0.9,1.7c0.8-1.2,1.3-2.2,1.8-2.9
				c0.4-0.7,0.6-1.1,0.6-1.2c0-0.1,0-0.2-0.1-0.3s-0.2-0.1-0.3-0.2c-0.1,0-0.3-0.1-0.5-0.1c-0.2,0-0.3,0-0.5,0v-0.5h3.6V60.3z"/>
			<path class="st1" d="M125.5,65.4c0.2,0.2,0.4,0.5,0.5,0.8c0.1,0.3,0.2,0.6,0.2,1c0,0.9-0.3,1.7-1,2.3s-1.5,0.9-2.5,0.9
				c-0.5,0-0.9-0.1-1.4-0.2c-0.5-0.1-0.9-0.3-1.2-0.5l-0.3,0.5h-0.6l-0.1-3.6h0.6c0.1,0.4,0.3,0.8,0.4,1.2c0.2,0.4,0.4,0.7,0.6,1
				c0.3,0.3,0.5,0.5,0.9,0.7c0.3,0.2,0.7,0.3,1.2,0.3c0.3,0,0.6,0,0.9-0.1c0.3-0.1,0.5-0.2,0.6-0.4s0.3-0.4,0.3-0.6
				c0.1-0.2,0.1-0.5,0.1-0.8c0-0.4-0.1-0.8-0.4-1.2c-0.2-0.4-0.6-0.6-1-0.8c-0.3-0.1-0.7-0.3-1.1-0.4c-0.4-0.2-0.8-0.3-1.1-0.4
				c-0.6-0.3-1-0.6-1.4-1c-0.3-0.4-0.5-1-0.5-1.7c0-0.4,0.1-0.8,0.2-1.1s0.4-0.6,0.7-0.9c0.3-0.3,0.6-0.5,1-0.6
				c0.4-0.1,0.8-0.2,1.2-0.2c0.5,0,0.9,0.1,1.3,0.2c0.4,0.1,0.7,0.3,1,0.5l0.3-0.5h0.6l0.1,3.4h-0.6c-0.1-0.4-0.2-0.8-0.4-1.1
				s-0.3-0.7-0.5-1c-0.2-0.3-0.5-0.5-0.8-0.7c-0.3-0.2-0.7-0.3-1.1-0.3c-0.5,0-0.9,0.1-1.2,0.4c-0.3,0.3-0.5,0.7-0.5,1.1
				c0,0.4,0.1,0.8,0.3,1.1c0.2,0.3,0.5,0.5,0.9,0.7c0.4,0.2,0.7,0.3,1.1,0.4c0.3,0.1,0.7,0.3,1,0.4c0.3,0.1,0.6,0.3,0.8,0.4
				S125.2,65.2,125.5,65.4z"/>
			<path class="st1" d="M131.9,70.2h-4.7v-0.5c0.1,0,0.3,0,0.6,0s0.4,0,0.5-0.1c0.2-0.1,0.3-0.2,0.4-0.3c0.1-0.1,0.1-0.3,0.1-0.5
				v-7.5c0-0.2,0-0.3-0.1-0.4s-0.2-0.2-0.4-0.3c-0.1-0.1-0.3-0.1-0.6-0.2c-0.2-0.1-0.4-0.1-0.5-0.1v-0.5h4.7v0.5
				c-0.2,0-0.3,0-0.5,0.1c-0.2,0-0.4,0.1-0.5,0.1c-0.2,0.1-0.3,0.2-0.4,0.3s-0.1,0.3-0.1,0.4v7.5c0,0.2,0,0.3,0.1,0.4
				c0.1,0.1,0.2,0.2,0.4,0.3c0.1,0,0.3,0.1,0.5,0.1c0.2,0,0.4,0.1,0.6,0.1V70.2z"/>
			<path class="st1" d="M137.8,70.4c-0.6,0-1.2-0.1-1.8-0.4c-0.6-0.2-1.1-0.6-1.5-1.1c-0.4-0.5-0.8-1-1-1.7
				c-0.3-0.7-0.4-1.4-0.4-2.2s0.1-1.6,0.4-2.3c0.3-0.7,0.6-1.3,1.1-1.7c0.4-0.5,1-0.9,1.6-1.1c0.6-0.3,1.2-0.4,1.9-0.4
				c0.5,0,1,0.1,1.4,0.2s0.8,0.3,1.2,0.5l0.3-0.5h0.6l0.1,3.7H141c-0.1-0.4-0.2-0.8-0.4-1.2c-0.2-0.4-0.3-0.8-0.5-1.1
				c-0.2-0.3-0.5-0.6-0.8-0.8c-0.3-0.2-0.7-0.3-1.1-0.3c-0.5,0-0.9,0.1-1.3,0.3c-0.4,0.2-0.8,0.5-1.1,0.9c-0.3,0.4-0.5,0.9-0.7,1.5
				c-0.2,0.6-0.2,1.3-0.2,2c0,0.7,0.1,1.3,0.3,1.8c0.2,0.6,0.4,1,0.7,1.5c0.3,0.4,0.7,0.7,1.1,1c0.4,0.2,0.9,0.4,1.4,0.4
				c0.4,0,0.8-0.1,1.1-0.2c0.3-0.1,0.6-0.3,0.9-0.5c0.2-0.2,0.5-0.5,0.6-0.7s0.3-0.6,0.5-0.9l0.5,0.3c-0.4,1-1,1.8-1.7,2.2
				C139.6,70.2,138.8,70.4,137.8,70.4z"/>
			<path class="st1" d="M152.5,70.2h-4.3v-0.5c0.4,0,0.7-0.1,0.9-0.1s0.4-0.2,0.4-0.3c0,0,0-0.1,0-0.2s0-0.1,0-0.2l-0.9-2.3H145
				c-0.1,0.3-0.2,0.6-0.3,0.9c-0.1,0.3-0.2,0.5-0.2,0.7c-0.1,0.2-0.1,0.4-0.1,0.5s0,0.2,0,0.3c0,0.2,0.2,0.3,0.5,0.5s0.7,0.2,1,0.2
				v0.5h-3.9v-0.5c0.1,0,0.3,0,0.5-0.1c0.2,0,0.3-0.1,0.5-0.2c0.2-0.1,0.3-0.3,0.5-0.4s0.2-0.3,0.3-0.6c0.5-1.3,1.1-2.8,1.7-4.4
				c0.6-1.6,1.2-3.1,1.7-4.3h0.6l3.5,9c0.1,0.2,0.2,0.3,0.2,0.5s0.2,0.2,0.4,0.3c0.1,0.1,0.3,0.1,0.4,0.2c0.2,0,0.3,0.1,0.5,0.1
				V70.2z M148.4,65.9l-1.6-4l-1.6,4H148.4z"/>
			<path class="st1" d="M161.3,67.1l-0.2,3.1h-8.1v-0.5c0.1,0,0.3,0,0.5-0.1c0.2,0,0.4-0.1,0.5-0.1c0.1-0.1,0.3-0.2,0.3-0.3
				c0.1-0.1,0.1-0.3,0.1-0.5v-7.4c0-0.2,0-0.3-0.1-0.4c-0.1-0.1-0.2-0.2-0.3-0.3c-0.1-0.1-0.3-0.1-0.5-0.2c-0.2-0.1-0.4-0.1-0.5-0.1
				v-0.5h4.4v0.5c-0.1,0-0.3,0-0.5,0.1s-0.4,0.1-0.5,0.1c-0.2,0.1-0.3,0.2-0.3,0.3c-0.1,0.1-0.1,0.3-0.1,0.5v7c0,0.3,0,0.6,0,0.8
				c0,0.2,0.1,0.3,0.2,0.4c0.1,0.1,0.3,0.1,0.5,0.2c0.2,0,0.5,0,0.9,0c0.2,0,0.4,0,0.6,0s0.4,0,0.6-0.1c0.2,0,0.3-0.1,0.5-0.1
				c0.1-0.1,0.2-0.1,0.3-0.2c0.2-0.2,0.4-0.6,0.7-1c0.3-0.5,0.5-0.8,0.6-1.1H161.3z"/>
			<path class="st1" d="M174,62.6h-0.5c0-0.2-0.1-0.4-0.2-0.6c-0.1-0.2-0.2-0.5-0.4-0.7c-0.1-0.2-0.3-0.4-0.5-0.6s-0.3-0.3-0.5-0.3
				c-0.2,0-0.3,0-0.6,0c-0.2,0-0.4,0-0.6,0h-0.4v8.3c0,0.2,0,0.3,0.1,0.4c0.1,0.1,0.2,0.2,0.4,0.3c0.1,0,0.3,0.1,0.6,0.1
				s0.5,0.1,0.7,0.1v0.5h-4.9v-0.5c0.1,0,0.3,0,0.6-0.1c0.3,0,0.5-0.1,0.6-0.1c0.2-0.1,0.3-0.2,0.4-0.3c0.1-0.1,0.1-0.3,0.1-0.5
				v-8.4h-0.4c-0.2,0-0.3,0-0.6,0c-0.2,0-0.4,0-0.6,0c-0.2,0-0.3,0.1-0.5,0.3c-0.2,0.2-0.3,0.4-0.5,0.6c-0.1,0.2-0.3,0.5-0.4,0.7
				c-0.1,0.2-0.2,0.5-0.2,0.6H165v-2.8h9.1V62.6z"/>
			<path class="st1" d="M185.6,70.2h-4.3v-0.5c0.1,0,0.3,0,0.5,0c0.2,0,0.4,0,0.5-0.1c0.1-0.1,0.3-0.1,0.3-0.3
				c0.1-0.1,0.1-0.3,0.1-0.5v-3.7h-4.9v3.6c0,0.2,0,0.3,0.1,0.4c0.1,0.1,0.2,0.2,0.3,0.3c0.1,0,0.2,0.1,0.4,0.1
				c0.2,0,0.4,0.1,0.5,0.1v0.5h-4.3v-0.5c0.1,0,0.3,0,0.5,0c0.2,0,0.4,0,0.5-0.1c0.1-0.1,0.3-0.1,0.3-0.3c0.1-0.1,0.1-0.3,0.1-0.5
				v-7.5c0-0.2,0-0.3-0.1-0.4s-0.2-0.2-0.3-0.3c-0.1-0.1-0.3-0.1-0.5-0.2c-0.2,0-0.4-0.1-0.5-0.1v-0.5h4.3v0.5c-0.1,0-0.3,0-0.5,0.1
				c-0.2,0-0.3,0.1-0.4,0.1c-0.2,0.1-0.3,0.2-0.3,0.3c-0.1,0.1-0.1,0.3-0.1,0.4v3.2h4.9v-3.1c0-0.2,0-0.3-0.1-0.4s-0.2-0.2-0.3-0.3
				c-0.1-0.1-0.3-0.1-0.5-0.2c-0.2,0-0.3-0.1-0.5-0.1v-0.5h4.3v0.5c-0.1,0-0.3,0-0.5,0.1c-0.2,0-0.3,0.1-0.4,0.1
				c-0.2,0.1-0.3,0.2-0.3,0.3c-0.1,0.1-0.1,0.3-0.1,0.4v7.5c0,0.2,0,0.3,0.1,0.4c0.1,0.1,0.2,0.2,0.3,0.3c0.1,0,0.2,0.1,0.4,0.1
				c0.2,0,0.4,0.1,0.5,0.1V70.2z"/>
			<path class="st1" d="M195.8,67.1l-0.2,3.1H187v-0.5c0.1,0,0.3,0,0.6-0.1c0.2,0,0.4-0.1,0.5-0.1c0.2-0.1,0.3-0.2,0.3-0.3
				c0.1-0.1,0.1-0.3,0.1-0.4v-7.5c0-0.2,0-0.3-0.1-0.4c-0.1-0.1-0.2-0.2-0.3-0.3c-0.1-0.1-0.3-0.1-0.5-0.2c-0.2,0-0.4-0.1-0.5-0.1
				v-0.5h8v2.5h-0.5c-0.1-0.4-0.3-0.8-0.6-1.2c-0.3-0.4-0.6-0.6-0.9-0.7c-0.2,0-0.3,0-0.5,0c-0.2,0-0.4,0-0.7,0H190v4.1h1.2
				c0.4,0,0.7,0,0.8-0.1c0.2-0.1,0.3-0.2,0.5-0.4c0.1-0.1,0.2-0.3,0.3-0.6c0.1-0.2,0.1-0.5,0.1-0.7h0.5v4.1h-0.5
				c0-0.2-0.1-0.5-0.2-0.7c-0.1-0.3-0.2-0.5-0.3-0.6c-0.2-0.2-0.3-0.3-0.5-0.4s-0.4-0.1-0.8-0.1H190v3.1c0,0.3,0,0.6,0.1,0.7
				c0,0.2,0.1,0.3,0.3,0.4s0.3,0.2,0.5,0.2c0.2,0,0.5,0,0.9,0c0.2,0,0.4,0,0.6,0s0.5,0,0.7,0c0.2,0,0.4-0.1,0.6-0.1
				c0.2-0.1,0.3-0.1,0.4-0.2c0.2-0.2,0.5-0.6,0.7-1.1c0.2-0.5,0.4-0.8,0.5-1H195.8z"/>
			<path class="st1" d="M207,70.2h-2.8c-0.6-1-1.2-1.8-1.7-2.5c-0.5-0.7-1-1.4-1.6-2.2h-1.1v3.3c0,0.2,0,0.3,0.1,0.5
				c0.1,0.1,0.2,0.2,0.3,0.3c0.1,0,0.2,0.1,0.5,0.1c0.2,0,0.4,0,0.6,0.1v0.5h-4.4v-0.5c0.1,0,0.3,0,0.5-0.1c0.2,0,0.4-0.1,0.5-0.1
				c0.1-0.1,0.3-0.2,0.3-0.3c0.1-0.1,0.1-0.3,0.1-0.5v-7.5c0-0.2,0-0.3-0.1-0.5s-0.2-0.2-0.3-0.3c-0.1,0-0.3-0.1-0.5-0.1
				c-0.2,0-0.4-0.1-0.5-0.1v-0.5h4.8c0.4,0,0.9,0,1.2,0.1s0.7,0.2,1,0.4c0.3,0.2,0.5,0.5,0.7,0.8c0.2,0.3,0.3,0.7,0.3,1.1
				c0,0.4-0.1,0.8-0.2,1.1s-0.3,0.6-0.5,0.8c-0.2,0.2-0.5,0.4-0.8,0.5c-0.3,0.2-0.6,0.3-1,0.4c0.5,0.7,0.9,1.2,1.3,1.7
				c0.3,0.5,0.8,1,1.2,1.7c0.2,0.3,0.4,0.5,0.6,0.6c0.2,0.1,0.3,0.3,0.5,0.3c0.1,0.1,0.3,0.1,0.5,0.1s0.3,0.1,0.5,0.1V70.2z
				 M203.1,62.4c0-0.6-0.2-1.1-0.5-1.5s-0.9-0.6-1.5-0.6h-1.2v4.5h1c0.7,0,1.2-0.2,1.7-0.6C202.9,63.8,203.1,63.2,203.1,62.4z"/>
			<path class="st1" d="M217.1,70.2h-4.3v-0.5c0.4,0,0.7-0.1,0.9-0.1s0.4-0.2,0.4-0.3c0,0,0-0.1,0-0.2s0-0.1,0-0.2l-0.9-2.3h-3.6
				c-0.1,0.3-0.2,0.6-0.3,0.9c-0.1,0.3-0.2,0.5-0.2,0.7c-0.1,0.2-0.1,0.4-0.1,0.5s0,0.2,0,0.3c0,0.2,0.2,0.3,0.5,0.5s0.7,0.2,1,0.2
				v0.5h-3.9v-0.5c0.1,0,0.3,0,0.5-0.1c0.2,0,0.3-0.1,0.5-0.2c0.2-0.1,0.3-0.3,0.5-0.4s0.2-0.3,0.3-0.6c0.5-1.3,1.1-2.8,1.7-4.4
				c0.6-1.6,1.2-3.1,1.7-4.3h0.6l3.5,9c0.1,0.2,0.2,0.3,0.2,0.5s0.2,0.2,0.4,0.3c0.1,0.1,0.3,0.1,0.4,0.2c0.2,0,0.3,0.1,0.5,0.1
				V70.2z M212.9,65.9l-1.6-4l-1.6,4H212.9z"/>
			<path class="st1" d="M225.4,62.4c0,0.5-0.1,1-0.3,1.4c-0.2,0.4-0.5,0.8-0.9,1c-0.4,0.3-0.8,0.5-1.2,0.6s-0.9,0.2-1.4,0.2h-1.2
				v3.1c0,0.2,0,0.3,0.1,0.5c0.1,0.1,0.2,0.2,0.3,0.3c0.1,0,0.2,0.1,0.5,0.1c0.2,0,0.4,0,0.6,0.1v0.5h-4.5v-0.5c0.1,0,0.3,0,0.5-0.1
				c0.2,0,0.4-0.1,0.5-0.1c0.1-0.1,0.3-0.2,0.3-0.3c0.1-0.1,0.1-0.3,0.1-0.5v-7.5c0-0.2,0-0.3-0.1-0.5s-0.2-0.2-0.3-0.3
				c-0.2-0.1-0.4-0.1-0.6-0.1c-0.2,0-0.3,0-0.5-0.1v-0.5h4.7c1,0,1.8,0.2,2.4,0.7S225.4,61.6,225.4,62.4z M223.2,64.1
				c0.2-0.2,0.3-0.5,0.3-0.7s0.1-0.5,0.1-0.7c0-0.3,0-0.6-0.1-0.8c-0.1-0.3-0.2-0.5-0.3-0.8c-0.2-0.2-0.4-0.4-0.7-0.5
				s-0.6-0.2-1-0.2h-1V65h0.7c0.5,0,1-0.1,1.3-0.2C222.8,64.6,223,64.4,223.2,64.1z"/>
			<path class="st1" d="M235.5,60.3c-0.1,0-0.2,0-0.4,0.1c-0.2,0.1-0.3,0.1-0.4,0.2c-0.2,0.1-0.3,0.2-0.4,0.3s-0.2,0.2-0.4,0.5
				c-0.4,0.5-0.7,1.1-1.1,1.6s-0.7,1.3-1.2,2.1c-0.2,0.3-0.3,0.6-0.4,0.8c-0.1,0.2-0.1,0.5-0.1,0.8v2c0,0.2,0,0.3,0.1,0.5
				c0.1,0.1,0.2,0.2,0.4,0.3c0.1,0,0.3,0.1,0.5,0.1c0.3,0.1,0.5,0.1,0.6,0.1v0.5H228v-0.5c0.1,0,0.3,0,0.6-0.1
				c0.3,0,0.5-0.1,0.6-0.1c0.2-0.1,0.3-0.2,0.4-0.3c0.1-0.1,0.1-0.3,0.1-0.5v-2.5c0-0.1,0-0.2-0.1-0.4c-0.1-0.2-0.2-0.4-0.3-0.7
				c-0.3-0.6-0.6-1.2-1-1.8c-0.4-0.7-0.7-1.2-0.9-1.7c-0.2-0.3-0.3-0.5-0.4-0.6c-0.1-0.1-0.3-0.3-0.4-0.4c-0.1-0.1-0.3-0.1-0.4-0.2
				c-0.2,0-0.3-0.1-0.4-0.1v-0.5h4.4v0.5c-0.5,0-0.8,0-1.1,0.1s-0.3,0.1-0.3,0.2c0,0,0,0.1,0,0.2s0.1,0.2,0.1,0.3
				c0.1,0.1,0.1,0.3,0.2,0.4c0.1,0.2,0.2,0.3,0.2,0.5c0.2,0.4,0.5,0.9,0.7,1.3c0.2,0.4,0.6,1,0.9,1.7c0.8-1.2,1.3-2.2,1.8-2.9
				c0.4-0.7,0.6-1.1,0.6-1.2c0-0.1,0-0.2-0.1-0.3s-0.2-0.1-0.3-0.2c-0.1,0-0.3-0.1-0.5-0.1c-0.2,0-0.3,0-0.5,0v-0.5h3.6V60.3z"/>
		</g>
		<line id="Bottom_Line_2_" class="st3" x1="87" y1="54.4" x2="236.2" y2="54.4"/>
		<g class="st2">
			<path class="st1" d="M93.9,50c-0.9,0-1.7-0.1-2.5-0.4c-0.8-0.3-1.5-0.7-2-1.3c-0.6-0.5-1-1.2-1.3-2c-0.3-0.8-0.5-1.7-0.5-2.6
				c0-0.9,0.2-1.8,0.5-2.6c0.3-0.8,0.8-1.5,1.4-2.1c0.6-0.6,1.3-1,2.1-1.3s1.7-0.5,2.6-0.5c0.7,0,1.3,0.1,1.8,0.2
				c0.6,0.2,1,0.4,1.4,0.6l0.5-0.5h0.7l0.1,4.4H98c-0.4-1.4-0.9-2.4-1.5-3c-0.6-0.6-1.3-1-2.2-1c-1.1,0-1.9,0.5-2.4,1.4
				c-0.6,0.9-0.8,2.3-0.8,4c0,1,0.1,1.8,0.3,2.5s0.4,1.2,0.7,1.7c0.3,0.4,0.7,0.8,1.2,1s1,0.3,1.5,0.3c0.8,0,1.5-0.2,2.1-0.7
				c0.6-0.4,1.2-1.1,1.7-2l0.7,0.4c-0.2,0.5-0.5,1-0.8,1.3c-0.3,0.4-0.7,0.7-1.1,1c-0.5,0.3-0.9,0.6-1.5,0.7
				C95.3,49.9,94.7,50,93.9,50z"/>
			<path class="st1" d="M114.9,49.7h-6.6V49c0.1,0,0.4,0,0.6-0.1c0.3,0,0.5-0.1,0.6-0.1c0.2-0.1,0.4-0.2,0.4-0.3
				c0.1-0.1,0.1-0.3,0.1-0.5v-4.2h-5.2v4.1c0,0.2,0,0.4,0.1,0.5s0.2,0.3,0.4,0.4c0.1,0,0.3,0.1,0.6,0.1c0.3,0.1,0.5,0.1,0.6,0.1v0.7
				h-6.6V49c0.1,0,0.4,0,0.6-0.1s0.5-0.1,0.6-0.1c0.2-0.1,0.3-0.2,0.4-0.3s0.1-0.3,0.1-0.5v-8.6c0-0.2,0-0.4-0.1-0.5
				c-0.1-0.1-0.2-0.3-0.4-0.4c-0.2-0.1-0.4-0.1-0.7-0.2c-0.3-0.1-0.5-0.1-0.6-0.1v-0.7h6.6v0.7c-0.2,0-0.4,0-0.6,0.1
				s-0.4,0.1-0.6,0.1c-0.2,0.1-0.4,0.2-0.4,0.4c-0.1,0.2-0.1,0.3-0.1,0.5v3.6h5.2v-3.5c0-0.2,0-0.4-0.1-0.5
				c-0.1-0.1-0.2-0.3-0.4-0.4c-0.1-0.1-0.3-0.1-0.6-0.2c-0.2-0.1-0.4-0.1-0.6-0.1v-0.7h6.6v0.7c-0.2,0-0.4,0-0.6,0.1
				s-0.4,0.1-0.6,0.1c-0.2,0.1-0.4,0.2-0.4,0.4s-0.1,0.3-0.1,0.5v8.6c0,0.2,0,0.4,0.1,0.5s0.2,0.3,0.4,0.4c0.1,0.1,0.3,0.1,0.6,0.2
				s0.5,0.1,0.6,0.1V49.7z"/>
			<path class="st1" d="M122.8,49.7h-6.7V49c0.2,0,0.4,0,0.7-0.1c0.3,0,0.5-0.1,0.6-0.1c0.2-0.1,0.4-0.2,0.4-0.3
				c0.1-0.1,0.1-0.3,0.1-0.5v-8.6c0-0.2,0-0.4-0.1-0.5c-0.1-0.1-0.2-0.3-0.4-0.4c-0.1-0.1-0.3-0.1-0.6-0.2c-0.3-0.1-0.5-0.1-0.7-0.1
				v-0.7h6.7v0.7c-0.2,0-0.4,0-0.6,0.1c-0.3,0-0.5,0.1-0.7,0.1c-0.2,0.1-0.4,0.2-0.4,0.3s-0.1,0.3-0.1,0.5v8.6c0,0.2,0,0.4,0.1,0.5
				s0.2,0.3,0.4,0.4c0.1,0.1,0.3,0.1,0.6,0.2c0.3,0,0.5,0.1,0.7,0.1V49.7z"/>
			<path class="st1" d="M137.9,49.7h-4.7c-0.8-1.2-1.5-2.2-2-2.9c-0.5-0.7-1.2-1.6-2-2.5h-0.5v3.7c0,0.2,0,0.4,0.1,0.5
				s0.2,0.3,0.4,0.4c0.1,0,0.3,0.1,0.5,0.1s0.4,0.1,0.6,0.1v0.7h-6.5V49c0.2,0,0.4,0,0.7-0.1s0.5-0.1,0.6-0.1
				c0.2-0.1,0.4-0.2,0.4-0.3c0.1-0.1,0.1-0.3,0.1-0.5v-8.6c0-0.2,0-0.4-0.1-0.5c-0.1-0.1-0.2-0.3-0.5-0.4c-0.2-0.1-0.4-0.1-0.6-0.2
				s-0.4-0.1-0.6-0.1v-0.7h6.8c1.5,0,2.7,0.2,3.5,0.7c0.8,0.5,1.2,1.2,1.2,2.2c0,0.9-0.2,1.5-0.7,2.1s-1.2,0.9-2.2,1.2
				c0.4,0.5,0.8,1.1,1.4,1.7c0.5,0.7,1.1,1.3,1.6,2c0.2,0.2,0.4,0.5,0.7,0.8c0.3,0.3,0.6,0.5,0.8,0.6c0.1,0,0.3,0.1,0.5,0.1
				c0.2,0,0.3,0,0.4,0.1V49.7z M132,40.6c0-0.8-0.2-1.4-0.7-1.8c-0.5-0.4-1.1-0.6-1.9-0.6h-0.7v5.1h0.7c0.8,0,1.5-0.2,2-0.7
				C131.8,42.3,132,41.6,132,40.6z"/>
			<path class="st1" d="M149.1,38.9c0.6,0.5,1.1,1.2,1.4,2c0.4,0.8,0.5,1.7,0.5,2.7c0,0.9-0.1,1.7-0.4,2.5s-0.7,1.5-1.3,2.1
				c-0.6,0.6-1.3,1.1-2.1,1.4s-1.7,0.5-2.8,0.5c-0.9,0-1.7-0.1-2.5-0.4c-0.8-0.3-1.5-0.7-2.1-1.3c-0.6-0.5-1.1-1.2-1.4-2
				c-0.3-0.8-0.5-1.6-0.5-2.6c0-1,0.2-1.9,0.5-2.7c0.3-0.8,0.8-1.5,1.4-2.1c0.6-0.6,1.3-1,2.1-1.3c0.8-0.3,1.7-0.5,2.6-0.5
				c0.9,0,1.8,0.1,2.6,0.4C147.9,37.9,148.6,38.3,149.1,38.9z M146.9,47.6c0.3-0.5,0.4-1.1,0.6-1.8c0.1-0.7,0.2-1.4,0.2-2.2
				c0-0.7,0-1.4-0.1-2.1c-0.1-0.7-0.3-1.3-0.5-1.8c-0.2-0.5-0.6-0.9-1-1.3s-0.9-0.5-1.5-0.5c-1,0-1.8,0.5-2.4,1.5
				c-0.5,1-0.8,2.4-0.8,4.2c0,0.8,0.1,1.5,0.2,2.2s0.3,1.3,0.6,1.8c0.3,0.5,0.6,0.9,1,1.2c0.4,0.3,0.9,0.4,1.5,0.4
				c0.6,0,1.1-0.1,1.5-0.4C146.4,48.5,146.7,48.1,146.9,47.6z"/>
			<path class="st1" d="M163.7,40.6c0,0.7-0.1,1.3-0.4,1.8c-0.3,0.5-0.7,0.9-1.2,1.2c-0.5,0.3-1.1,0.6-1.8,0.7
				c-0.7,0.1-1.4,0.2-2.2,0.2h-1v3.4c0,0.2,0,0.4,0.1,0.5s0.2,0.3,0.4,0.4c0.1,0,0.3,0.1,0.6,0.1c0.3,0.1,0.5,0.1,0.7,0.1v0.7h-6.6
				V49c0.2,0,0.4,0,0.7-0.1c0.3,0,0.5-0.1,0.6-0.1c0.2-0.1,0.4-0.2,0.4-0.3c0.1-0.1,0.1-0.3,0.1-0.5v-8.6c0-0.2,0-0.4-0.1-0.5
				c-0.1-0.1-0.2-0.3-0.4-0.4c-0.2-0.1-0.4-0.1-0.6-0.2c-0.3-0.1-0.5-0.1-0.6-0.1v-0.7h6.7c1.6,0,2.7,0.2,3.5,0.7
				C163.3,38.8,163.7,39.5,163.7,40.6z M160.4,41c0-0.9-0.2-1.6-0.6-2s-1-0.7-2-0.7h-0.7v5.3h0.4c0.9,0,1.6-0.2,2.1-0.6
				C160.1,42.6,160.4,41.9,160.4,41z"/>
			<path class="st1" d="M178.6,49.7h-4.7c-0.8-1.2-1.5-2.2-2-2.9c-0.5-0.7-1.2-1.6-2-2.5h-0.5v3.7c0,0.2,0,0.4,0.1,0.5
				s0.2,0.3,0.4,0.4c0.1,0,0.3,0.1,0.5,0.1s0.4,0.1,0.6,0.1v0.7h-6.5V49c0.2,0,0.4,0,0.7-0.1s0.5-0.1,0.6-0.1
				c0.2-0.1,0.4-0.2,0.4-0.3c0.1-0.1,0.1-0.3,0.1-0.5v-8.6c0-0.2,0-0.4-0.1-0.5c-0.1-0.1-0.2-0.3-0.5-0.4c-0.2-0.1-0.4-0.1-0.6-0.2
				s-0.4-0.1-0.6-0.1v-0.7h6.8c1.5,0,2.7,0.2,3.5,0.7c0.8,0.5,1.2,1.2,1.2,2.2c0,0.9-0.2,1.5-0.7,2.1s-1.2,0.9-2.2,1.2
				c0.4,0.5,0.8,1.1,1.4,1.7c0.5,0.7,1.1,1.3,1.6,2c0.2,0.2,0.4,0.5,0.7,0.8c0.3,0.3,0.6,0.5,0.8,0.6c0.1,0,0.3,0.1,0.5,0.1
				c0.2,0,0.3,0,0.4,0.1V49.7z M172.7,40.6c0-0.8-0.2-1.4-0.7-1.8c-0.5-0.4-1.1-0.6-1.9-0.6h-0.7v5.1h0.7c0.8,0,1.5-0.2,2-0.7
				C172.5,42.3,172.7,41.6,172.7,40.6z"/>
			<path class="st1" d="M191.8,49.7h-6.6V49c0.3,0,0.7-0.1,1.1-0.2c0.4-0.1,0.6-0.2,0.6-0.3c0,0,0-0.1,0-0.2c0-0.1,0-0.1-0.1-0.2
				l-1-2.5h-4.2c-0.1,0.2-0.2,0.5-0.3,0.8c-0.1,0.3-0.2,0.6-0.3,0.8c-0.1,0.3-0.2,0.6-0.2,0.7c0,0.1,0,0.2,0,0.3
				c0,0.2,0.1,0.3,0.4,0.5c0.3,0.1,0.7,0.2,1.4,0.3v0.7h-5V49c0.2,0,0.4,0,0.6-0.1c0.2,0,0.4-0.1,0.6-0.2c0.2-0.1,0.4-0.3,0.6-0.5
				c0.2-0.2,0.3-0.4,0.4-0.7c0.7-1.6,1.3-3.2,2-4.8c0.7-1.6,1.4-3.4,2.2-5.3h1.7c1.1,2.8,2,4.9,2.6,6.5c0.6,1.6,1.2,2.9,1.6,4
				c0.1,0.2,0.2,0.3,0.3,0.5c0.1,0.1,0.3,0.3,0.5,0.4c0.2,0.1,0.3,0.2,0.6,0.2s0.4,0.1,0.6,0.1V49.7z M185.4,44.8l-1.8-4.4l-1.7,4.4
				H185.4z"/>
			<path class="st1" d="M198.3,50c-0.9,0-1.7-0.1-2.5-0.4c-0.8-0.3-1.5-0.7-2-1.3c-0.6-0.5-1-1.2-1.3-2c-0.3-0.8-0.5-1.7-0.5-2.6
				c0-0.9,0.2-1.8,0.5-2.6c0.3-0.8,0.8-1.5,1.4-2.1c0.6-0.6,1.3-1,2.1-1.3s1.7-0.5,2.6-0.5c0.7,0,1.3,0.1,1.8,0.2
				c0.6,0.2,1,0.4,1.4,0.6l0.5-0.5h0.7l0.1,4.4h-0.8c-0.4-1.4-0.9-2.4-1.5-3c-0.6-0.6-1.3-1-2.2-1c-1.1,0-1.9,0.5-2.4,1.4
				c-0.6,0.9-0.8,2.3-0.8,4c0,1,0.1,1.8,0.3,2.5s0.4,1.2,0.7,1.7c0.3,0.4,0.7,0.8,1.2,1s1,0.3,1.5,0.3c0.8,0,1.5-0.2,2.1-0.7
				c0.6-0.4,1.2-1.1,1.7-2l0.7,0.4c-0.2,0.5-0.5,1-0.8,1.3c-0.3,0.4-0.7,0.7-1.1,1c-0.5,0.3-0.9,0.6-1.5,0.7
				C199.7,49.9,199,50,198.3,50z"/>
			<path class="st1" d="M215.7,41h-0.7c-0.2-0.5-0.5-1.1-0.9-1.7c-0.4-0.6-0.8-0.9-1.1-1c-0.2,0-0.4,0-0.7-0.1c-0.3,0-0.5,0-0.7,0
				h-0.4v9.5c0,0.2,0,0.4,0.1,0.5c0.1,0.2,0.2,0.3,0.4,0.4c0.1,0.1,0.3,0.1,0.6,0.2c0.3,0.1,0.5,0.1,0.7,0.1v0.7h-6.8V49
				c0.2,0,0.4,0,0.7-0.1s0.5-0.1,0.6-0.1c0.2-0.1,0.4-0.2,0.4-0.4s0.1-0.3,0.1-0.5v-9.6h-0.4c-0.2,0-0.4,0-0.7,0
				c-0.3,0-0.5,0-0.7,0.1c-0.3,0-0.7,0.4-1.1,1c-0.4,0.6-0.7,1.2-0.9,1.7H204v-3.5h11.8V41z"/>
			<path class="st1" d="M223.1,49.7h-6.7V49c0.2,0,0.4,0,0.7-0.1c0.3,0,0.5-0.1,0.6-0.1c0.2-0.1,0.4-0.2,0.4-0.3
				c0.1-0.1,0.1-0.3,0.1-0.5v-8.6c0-0.2,0-0.4-0.1-0.5c-0.1-0.1-0.2-0.3-0.4-0.4c-0.1-0.1-0.3-0.1-0.6-0.2c-0.3-0.1-0.5-0.1-0.7-0.1
				v-0.7h6.7v0.7c-0.2,0-0.4,0-0.6,0.1c-0.3,0-0.5,0.1-0.7,0.1c-0.2,0.1-0.4,0.2-0.4,0.3s-0.1,0.3-0.1,0.5v8.6c0,0.2,0,0.4,0.1,0.5
				s0.2,0.3,0.4,0.4c0.1,0.1,0.3,0.1,0.6,0.2c0.3,0,0.5,0.1,0.7,0.1V49.7z"/>
			<path class="st1" d="M230.6,50c-0.9,0-1.7-0.1-2.5-0.4c-0.8-0.3-1.5-0.7-2-1.3c-0.6-0.5-1-1.2-1.3-2c-0.3-0.8-0.5-1.7-0.5-2.6
				c0-0.9,0.2-1.8,0.5-2.6c0.3-0.8,0.8-1.5,1.4-2.1c0.6-0.6,1.3-1,2.1-1.3s1.7-0.5,2.6-0.5c0.7,0,1.3,0.1,1.8,0.2
				c0.6,0.2,1,0.4,1.4,0.6l0.5-0.5h0.7l0.1,4.4h-0.8c-0.4-1.4-0.9-2.4-1.5-3c-0.6-0.6-1.3-1-2.2-1c-1.1,0-1.9,0.5-2.4,1.4
				c-0.6,0.9-0.8,2.3-0.8,4c0,1,0.1,1.8,0.3,2.5s0.4,1.2,0.7,1.7c0.3,0.4,0.7,0.8,1.2,1s1,0.3,1.5,0.3c0.8,0,1.5-0.2,2.1-0.7
				c0.6-0.4,1.2-1.1,1.7-2l0.7,0.4c-0.2,0.5-0.5,1-0.8,1.3c-0.3,0.4-0.7,0.7-1.1,1c-0.5,0.3-0.9,0.6-1.5,0.7
				C232,49.9,231.4,50,230.6,50z"/>
		</g>
		<line id="Top_Line_2_" class="st3" x1="87" y1="32.9" x2="236.2" y2="32.9"/>
		<g class="st2">
			<path class="st1" d="M101.2,15.5c-0.2,0-0.4,0.1-0.8,0.1c-0.3,0.1-0.6,0.2-0.7,0.3c-0.2,0.1-0.4,0.4-0.4,0.8
				c-0.1,0.4-0.1,0.9-0.1,1.6v9.1h-0.8L91,17.3v6.4c0,0.7,0,1.3,0.1,1.6c0.1,0.4,0.2,0.7,0.4,0.8c0.1,0.1,0.4,0.2,0.8,0.4
				c0.4,0.1,0.7,0.2,0.8,0.2v0.6h-5.1v-0.6c0.2,0,0.4-0.1,0.8-0.2s0.6-0.2,0.7-0.3c0.2-0.2,0.3-0.4,0.4-0.7c0.1-0.3,0.1-0.9,0.1-1.7
				v-6.1c0-0.3,0-0.5-0.1-0.8s-0.2-0.5-0.4-0.6c-0.2-0.2-0.5-0.4-0.9-0.5s-0.6-0.2-0.9-0.2v-0.6h3.5l7,9.4v-5.9c0-0.7,0-1.3-0.1-1.7
				c-0.1-0.4-0.2-0.6-0.4-0.8c-0.2-0.1-0.4-0.2-0.8-0.3c-0.4-0.1-0.7-0.2-0.8-0.2v-0.6h5V15.5z"/>
			<path class="st1" d="M112.2,16.4c0.5,0.6,1,1.3,1.3,2.1c0.3,0.8,0.5,1.7,0.5,2.7c0,1-0.2,1.9-0.5,2.7c-0.3,0.8-0.8,1.5-1.3,2
				c-0.5,0.6-1.2,1-1.9,1.3c-0.7,0.3-1.5,0.5-2.3,0.5c-0.9,0-1.7-0.2-2.4-0.5s-1.4-0.8-1.9-1.3c-0.5-0.6-0.9-1.2-1.2-2.1
				c-0.3-0.8-0.4-1.7-0.4-2.6c0-1,0.2-1.9,0.5-2.7c0.3-0.8,0.7-1.5,1.3-2c0.5-0.6,1.2-1,1.9-1.3c0.7-0.3,1.5-0.5,2.3-0.5
				c0.8,0,1.6,0.2,2.3,0.5C111.1,15.4,111.7,15.8,112.2,16.4z M110.9,25.1c0.3-0.5,0.6-1.1,0.7-1.8c0.1-0.7,0.2-1.4,0.2-2.2
				c0-0.8-0.1-1.6-0.2-2.3c-0.2-0.7-0.4-1.3-0.7-1.8c-0.3-0.5-0.7-0.9-1.2-1.2c-0.5-0.3-1-0.4-1.7-0.4c-0.7,0-1.3,0.2-1.8,0.5
				c-0.5,0.3-0.9,0.7-1.2,1.3c-0.3,0.5-0.5,1.1-0.6,1.8c-0.1,0.7-0.2,1.4-0.2,2.2c0,0.8,0.1,1.6,0.2,2.3s0.4,1.3,0.7,1.8
				c0.3,0.5,0.7,0.9,1.2,1.2c0.5,0.3,1,0.4,1.7,0.4c0.6,0,1.2-0.1,1.7-0.4C110.2,26.1,110.6,25.7,110.9,25.1z"/>
			<path class="st1" d="M127.6,27.3h-3.3c-0.7-1.2-1.4-2.2-2-3c-0.6-0.8-1.2-1.7-1.9-2.6H119v3.9c0,0.2,0,0.4,0.1,0.5
				c0.1,0.2,0.2,0.3,0.4,0.4c0.1,0,0.3,0.1,0.5,0.1c0.3,0,0.5,0.1,0.7,0.1v0.6h-5.2v-0.6c0.1,0,0.3,0,0.6-0.1c0.3,0,0.4-0.1,0.6-0.1
				c0.2-0.1,0.3-0.2,0.4-0.3c0.1-0.1,0.1-0.3,0.1-0.6v-8.9c0-0.2,0-0.4-0.1-0.5c-0.1-0.2-0.2-0.3-0.4-0.4c-0.1-0.1-0.3-0.1-0.6-0.1
				c-0.2,0-0.4-0.1-0.6-0.1v-0.6h5.7c0.5,0,1,0.1,1.5,0.2c0.5,0.1,0.9,0.3,1.2,0.5c0.4,0.2,0.6,0.5,0.9,0.9s0.3,0.8,0.3,1.4
				c0,0.5-0.1,0.9-0.2,1.3s-0.4,0.7-0.6,1c-0.3,0.2-0.6,0.5-0.9,0.6c-0.4,0.2-0.8,0.3-1.2,0.5c0.6,0.8,1.1,1.5,1.5,2
				c0.4,0.6,0.9,1.2,1.5,2c0.3,0.3,0.5,0.6,0.7,0.8c0.2,0.2,0.4,0.3,0.6,0.4c0.2,0.1,0.3,0.1,0.6,0.2c0.2,0,0.4,0.1,0.6,0.1V27.3z
				 M123,18c0-0.7-0.2-1.3-0.6-1.8c-0.4-0.4-1-0.7-1.8-0.7H119v5.3h1.1c0.8,0,1.5-0.3,2-0.8C122.7,19.6,123,18.9,123,18z"/>
			<path class="st1" d="M138.1,18.3h-0.6c-0.1-0.2-0.1-0.5-0.3-0.7c-0.1-0.3-0.3-0.6-0.5-0.8c-0.2-0.3-0.4-0.5-0.6-0.7
				c-0.2-0.2-0.4-0.3-0.6-0.3c-0.2,0-0.4,0-0.7-0.1c-0.3,0-0.5,0-0.8,0h-0.5v9.9c0,0.2,0,0.4,0.1,0.5c0.1,0.2,0.2,0.3,0.4,0.4
				c0.1,0,0.3,0.1,0.7,0.2c0.3,0.1,0.6,0.1,0.8,0.1v0.6h-5.8v-0.6c0.2,0,0.4,0,0.7-0.1c0.3,0,0.6-0.1,0.7-0.1
				c0.2-0.1,0.3-0.2,0.4-0.3c0.1-0.1,0.1-0.3,0.1-0.6v-10h-0.5c-0.2,0-0.4,0-0.7,0c-0.3,0-0.5,0-0.8,0.1c-0.2,0-0.4,0.1-0.6,0.3
				c-0.2,0.2-0.4,0.4-0.6,0.7c-0.2,0.3-0.3,0.5-0.5,0.8c-0.1,0.3-0.2,0.5-0.3,0.7h-0.6v-3.4h10.8V18.3z"/>
			<path class="st1" d="M151.9,27.3h-5.1v-0.6c0.1,0,0.3,0,0.6-0.1c0.3,0,0.4-0.1,0.5-0.1c0.2-0.1,0.3-0.2,0.4-0.3
				c0.1-0.1,0.1-0.3,0.1-0.6v-4.4h-5.8v4.3c0,0.2,0,0.4,0.1,0.5c0.1,0.1,0.2,0.3,0.4,0.4c0.1,0.1,0.3,0.1,0.5,0.2
				c0.3,0.1,0.5,0.1,0.6,0.1v0.6h-5.1v-0.6c0.1,0,0.3,0,0.6-0.1c0.3,0,0.4-0.1,0.5-0.1c0.2-0.1,0.3-0.2,0.4-0.3s0.1-0.3,0.1-0.6
				v-8.9c0-0.2,0-0.4-0.1-0.5s-0.2-0.3-0.4-0.4c-0.2-0.1-0.3-0.1-0.6-0.2c-0.2-0.1-0.4-0.1-0.6-0.1v-0.6h5.1v0.6
				c-0.2,0-0.4,0-0.6,0.1s-0.4,0.1-0.5,0.1c-0.2,0.1-0.3,0.2-0.4,0.3c-0.1,0.2-0.1,0.3-0.1,0.5v3.8h5.8v-3.8c0-0.2,0-0.4-0.1-0.5
				c-0.1-0.2-0.2-0.3-0.4-0.4c-0.2-0.1-0.3-0.1-0.6-0.2c-0.2-0.1-0.4-0.1-0.6-0.1v-0.6h5.1v0.6c-0.2,0-0.4,0-0.6,0.1
				c-0.2,0-0.4,0.1-0.5,0.1c-0.2,0.1-0.3,0.2-0.4,0.3c-0.1,0.2-0.1,0.3-0.1,0.5v8.9c0,0.2,0,0.4,0.1,0.5c0.1,0.1,0.2,0.3,0.4,0.4
				c0.1,0.1,0.3,0.1,0.5,0.2c0.3,0.1,0.5,0.1,0.6,0.1V27.3z"/>
			<path class="st1" d="M167.6,18h-0.7c-0.1-0.5-0.4-1-0.8-1.5s-0.8-0.8-1.1-0.9c-0.2,0-0.4,0-0.6-0.1s-0.5,0-0.8,0h-2.1v5h1.4
				c0.4,0,0.8,0,1-0.1c0.2-0.1,0.4-0.2,0.6-0.4c0.1-0.1,0.2-0.3,0.3-0.6c0.1-0.3,0.2-0.6,0.2-0.9h0.7v4.9H165c0-0.3-0.1-0.5-0.2-0.9
				c-0.1-0.3-0.2-0.6-0.3-0.7c-0.2-0.2-0.4-0.4-0.7-0.4c-0.3-0.1-0.6-0.1-1-0.1h-1.4v4.3c0,0.2,0,0.4,0.1,0.5
				c0.1,0.2,0.2,0.3,0.4,0.4c0.1,0,0.3,0.1,0.6,0.1c0.3,0.1,0.5,0.1,0.7,0.1v0.6h-5.4v-0.6c0.2,0,0.4,0,0.7-0.1
				c0.3,0,0.5-0.1,0.6-0.1c0.2-0.1,0.3-0.2,0.4-0.3c0.1-0.1,0.1-0.3,0.1-0.5v-8.9c0-0.2,0-0.4-0.1-0.5c-0.1-0.1-0.2-0.3-0.4-0.4
				c-0.2-0.1-0.4-0.1-0.6-0.2c-0.3-0.1-0.5-0.1-0.6-0.1v-0.6h9.7V18z"/>
			<path class="st1" d="M178.6,23.6l-0.3,3.7h-9.7v-0.6c0.1,0,0.3,0,0.6-0.1c0.3,0,0.4-0.1,0.6-0.1c0.2-0.1,0.3-0.2,0.4-0.3
				c0.1-0.1,0.1-0.3,0.1-0.6v-8.9c0-0.2,0-0.4-0.1-0.5c-0.1-0.2-0.2-0.3-0.4-0.4c-0.1-0.1-0.3-0.1-0.6-0.2c-0.2-0.1-0.4-0.1-0.6-0.1
				v-0.6h5.2v0.6c-0.2,0-0.4,0-0.6,0.1c-0.3,0.1-0.4,0.1-0.6,0.1c-0.2,0.1-0.3,0.2-0.4,0.4c-0.1,0.2-0.1,0.3-0.1,0.5V25
				c0,0.4,0,0.7,0.1,0.9c0,0.2,0.1,0.4,0.3,0.5c0.1,0.1,0.3,0.2,0.6,0.2c0.3,0,0.6,0,1.1,0c0.2,0,0.4,0,0.7,0c0.2,0,0.5,0,0.7-0.1
				c0.2,0,0.4-0.1,0.6-0.1c0.2-0.1,0.3-0.1,0.4-0.2c0.2-0.3,0.5-0.7,0.8-1.2c0.3-0.5,0.5-1,0.7-1.3H178.6z"/>
			<path class="st1" d="M189.5,16.4c0.5,0.6,1,1.3,1.3,2.1c0.3,0.8,0.5,1.7,0.5,2.7c0,1-0.2,1.9-0.5,2.7c-0.3,0.8-0.8,1.5-1.3,2
				c-0.5,0.6-1.2,1-1.9,1.3c-0.7,0.3-1.5,0.5-2.3,0.5c-0.9,0-1.7-0.2-2.4-0.5s-1.4-0.8-1.9-1.3c-0.5-0.6-0.9-1.2-1.2-2.1
				c-0.3-0.8-0.4-1.7-0.4-2.6c0-1,0.2-1.9,0.5-2.7c0.3-0.8,0.7-1.5,1.3-2c0.5-0.6,1.2-1,1.9-1.3c0.7-0.3,1.5-0.5,2.3-0.5
				c0.8,0,1.6,0.2,2.3,0.5C188.3,15.4,188.9,15.8,189.5,16.4z M188.2,25.1c0.3-0.5,0.6-1.1,0.7-1.8c0.1-0.7,0.2-1.4,0.2-2.2
				c0-0.8-0.1-1.6-0.2-2.3c-0.2-0.7-0.4-1.3-0.7-1.8c-0.3-0.5-0.7-0.9-1.2-1.2c-0.5-0.3-1-0.4-1.7-0.4c-0.7,0-1.3,0.2-1.8,0.5
				c-0.5,0.3-0.9,0.7-1.2,1.3c-0.3,0.5-0.5,1.1-0.6,1.8c-0.1,0.7-0.2,1.4-0.2,2.2c0,0.8,0.1,1.6,0.2,2.3s0.4,1.3,0.7,1.8
				c0.3,0.5,0.7,0.9,1.2,1.2c0.5,0.3,1,0.4,1.7,0.4c0.6,0,1.2-0.1,1.7-0.4C187.4,26.1,187.8,25.7,188.2,25.1z"/>
			<path class="st1" d="M204.8,27.3h-3.3c-0.7-1.2-1.4-2.2-2-3c-0.6-0.8-1.2-1.7-1.9-2.6h-1.3v3.9c0,0.2,0,0.4,0.1,0.5
				c0.1,0.2,0.2,0.3,0.4,0.4c0.1,0,0.3,0.1,0.5,0.1c0.3,0,0.5,0.1,0.7,0.1v0.6h-5.2v-0.6c0.1,0,0.3,0,0.6-0.1c0.3,0,0.4-0.1,0.6-0.1
				c0.2-0.1,0.3-0.2,0.4-0.3c0.1-0.1,0.1-0.3,0.1-0.6v-8.9c0-0.2,0-0.4-0.1-0.5c-0.1-0.2-0.2-0.3-0.4-0.4c-0.1-0.1-0.3-0.1-0.6-0.1
				c-0.2,0-0.4-0.1-0.6-0.1v-0.6h5.7c0.5,0,1,0.1,1.5,0.2c0.5,0.1,0.9,0.3,1.2,0.5c0.4,0.2,0.6,0.5,0.9,0.9s0.3,0.8,0.3,1.4
				c0,0.5-0.1,0.9-0.2,1.3s-0.4,0.7-0.6,1c-0.3,0.2-0.6,0.5-0.9,0.6c-0.4,0.2-0.8,0.3-1.2,0.5c0.6,0.8,1.1,1.5,1.5,2
				c0.4,0.6,0.9,1.2,1.5,2c0.3,0.3,0.5,0.6,0.7,0.8c0.2,0.2,0.4,0.3,0.6,0.4c0.2,0.1,0.3,0.1,0.6,0.2c0.2,0,0.4,0.1,0.6,0.1V27.3z
				 M200.2,18c0-0.7-0.2-1.3-0.6-1.8c-0.4-0.4-1-0.7-1.8-0.7h-1.5v5.3h1.1c0.8,0,1.5-0.3,2-0.8C200,19.6,200.2,18.9,200.2,18z"/>
			<path class="st1" d="M210.7,27.3h-5.6v-0.6c0.2,0,0.4,0,0.7-0.1c0.3,0,0.5-0.1,0.6-0.1c0.2-0.1,0.3-0.2,0.4-0.3s0.1-0.3,0.1-0.5
				v-9c0-0.2,0-0.4-0.1-0.5c-0.1-0.1-0.2-0.3-0.5-0.3c-0.2-0.1-0.4-0.1-0.7-0.2c-0.3-0.1-0.5-0.1-0.6-0.1v-0.6h5.6v0.6
				c-0.2,0-0.4,0-0.6,0.1c-0.2,0-0.5,0.1-0.7,0.1c-0.2,0.1-0.4,0.2-0.4,0.3c-0.1,0.2-0.1,0.3-0.1,0.5v9c0,0.2,0,0.4,0.1,0.5
				c0.1,0.1,0.2,0.3,0.4,0.4c0.1,0,0.3,0.1,0.6,0.2c0.3,0.1,0.5,0.1,0.7,0.1V27.3z"/>
			<path class="st1" d="M224.1,21.2c0,1.1-0.2,2-0.6,2.7c-0.4,0.8-0.9,1.4-1.5,1.9c-0.6,0.5-1.4,0.9-2.2,1.1
				c-0.8,0.2-1.6,0.4-2.5,0.4h-5.1v-0.6c0.2,0,0.4,0,0.7,0s0.4-0.1,0.5-0.1c0.2-0.1,0.3-0.2,0.4-0.3c0.1-0.1,0.1-0.3,0.1-0.5v-8.9
				c0-0.2,0-0.4-0.1-0.5c-0.1-0.2-0.2-0.3-0.4-0.4c-0.2-0.1-0.4-0.2-0.6-0.2c-0.2,0-0.4-0.1-0.5-0.1v-0.6h5.4c0.7,0,1.5,0.1,2.2,0.3
				c0.7,0.2,1.3,0.5,1.9,0.9c0.7,0.5,1.3,1.2,1.7,2C223.9,19,224.1,20,224.1,21.2z M222,21.2c0-0.8-0.1-1.6-0.3-2.3s-0.5-1.3-1-1.8
				c-0.4-0.5-0.9-0.9-1.5-1.1c-0.6-0.3-1.2-0.4-1.9-0.4c-0.2,0-0.5,0-0.8,0c-0.3,0-0.5,0-0.7,0v9.5c0,0.5,0.2,0.9,0.5,1.1
				c0.3,0.2,0.8,0.3,1.4,0.3c0.7,0,1.4-0.1,1.9-0.4c0.6-0.3,1-0.6,1.3-1.1c0.4-0.5,0.6-1.1,0.8-1.7C221.9,22.7,222,22,222,21.2z"/>
			<path class="st1" d="M237.2,27.3H232v-0.6c0.5,0,0.8-0.1,1.1-0.2c0.3-0.1,0.4-0.2,0.4-0.3c0-0.1,0-0.1,0-0.2c0-0.1,0-0.1-0.1-0.2
				l-1-2.8h-4.3c-0.2,0.4-0.3,0.8-0.4,1.1c-0.1,0.3-0.2,0.6-0.3,0.8c-0.1,0.2-0.1,0.5-0.2,0.6s0,0.3,0,0.4c0,0.2,0.2,0.4,0.5,0.5
				s0.8,0.2,1.2,0.2v0.6h-4.7v-0.6c0.2,0,0.3,0,0.6-0.1c0.2-0.1,0.4-0.1,0.6-0.2c0.2-0.2,0.4-0.3,0.5-0.5c0.1-0.2,0.3-0.4,0.4-0.7
				c0.6-1.6,1.3-3.3,2.1-5.2c0.8-1.9,1.4-3.7,2-5.2h0.7l4.1,10.7c0.1,0.2,0.2,0.4,0.3,0.5c0.1,0.1,0.3,0.3,0.5,0.4
				c0.1,0.1,0.3,0.2,0.5,0.2c0.2,0.1,0.4,0.1,0.5,0.1V27.3z M232.2,22.2l-1.9-4.8l-1.8,4.8H232.2z"/>
		</g>
	</g>
</g>
<g>
</g>
<g>
</g>
<g>
</g>
<g>
</g>
<g>
</g>
</svg>
